<?xml version="1.0" encoding="utf-8"?>
<!-- Generator: Adobe Illustrator 27.0.1, SVG Export Plug-In . SVG Version: 6.00 Build 0)  -->
<svg version="1.1" id="Layer_1" xmlns="http://www.w3.org/2000/svg" xmlns:xlink="http://www.w3.org/1999/xlink" x="0px" y="0px"
	 viewBox="0 0 3000 2000" style="enable-background:new 0 0 3000 2000;" xml:space="preserve">
<style type="text/css">
	.st0{fill:#FFFFFF;}
</style>
<g>
	<path d="M733.4,510.93c-3.1-1.24-8.73-2.07-13.8-2.07h-12.39v15.89h11.54c3.38,0,10.42-0.14,15.21-2.49
		c2.53-1.1,4.51-2.9,4.51-5.66C738.47,513.69,735.93,511.9,733.4,510.93z"/>
	<path d="M1192.3,511.34c-2.25-1.24-5.91-2.49-11.55-2.49h-11.82v15.75h7.88c3.94,0,10.14-0.28,14.36-2.07
		c2.25-0.97,4.79-2.77,4.79-5.66C1195.96,514.8,1194.83,512.73,1192.3,511.34z"/>
	<polygon points="944.27,524.74 939.76,515.63 934.97,524.74 934.97,524.75 925.68,542.44 953,542.44 944.27,524.75 	"/>
	<polygon points="2075.45,524.74 2070.95,515.63 2066.16,524.74 2066.16,524.75 2056.87,542.44 2084.18,542.44 2075.45,524.75 	"/>
	<path d="M583.18,414.07v231.17h1833.65V414.07H583.18z M786.33,540.5c-14.92,6.63-31.82,7.46-46.18,7.46h-32.94v27.77h-66.46
		v-92.17h90.1c29.85,0,47.03,5.94,54.91,9.67c15.48,7.46,19.15,16.86,19.15,24.18C804.92,525.02,801.54,533.73,786.33,540.5z
		 M971.01,575.74l-6.19-11.47h-51.81l-5.07,11.47h-72.09l65.05-92.17h75.46l67.02,92.17H971.01z M1199.62,575.74l-14.27-14.23v0
		l-14.1-14.05c-0.4-0.4-1.5-1.5-1.5-1.5l-0.82-0.82v1.02v18.3v11.27h-66.45v-92.17h84.75c19.71,0,40.27,1.1,57.45,9.53
		c9.57,4.7,17.74,11.75,17.74,22.67c0,8.15-5.07,13.27-10.42,16.45c-5.63,3.45-14.92,6.22-25.91,7.32v0.83
		c3.66,0.97,7.32,2.35,9.86,4.28l42.24,31.09H1199.62z M1471.3,575.74h-128.4v-92.17h126.71v25.29h-58.57v8.57h53.22v24.18h-53.22
		v8.84h60.26V575.74z M1728.63,575.74h-65.33l-57.44-46.06v46.06h-65.05v-92.17h65.05l57.44,46.82v-46.82h65.33V575.74z
		 M1933.29,513.55h-38.3v62.19h-67.01v-62.19h-38.3v-29.99h143.6V513.55z M2102.2,575.74l-6.19-11.47h-51.82l-5.07,11.47h-72.08
		l65.05-92.17h75.46l67.02,92.17H2102.2z M2359.24,575.74h-125.58v-92.17h68.14v62.46h57.45V575.74z"/>
	<path class="st0" d="M583.18,1220.91h1833.65V645.24H583.18V1220.91z M2211.45,707.2h64.21v65.12c0,18.32,1.08,27.81,5.4,52.23
		l4.86,27.81l5.12-27.81c4.32-23.06,5.4-33.24,5.4-52.91V707.2h56.12v80.05c-4.05,8.82-6.2,16.95-8.9,30.52l-34,167.54v42.73
		c0,33.91,1.62,44.09,8.1,51.55v80.04h-72.04v-80.04c5.94-7.46,8.1-18.99,8.1-51.55v-37.3l-32.11-166.19
		c-4.32-23.06-6.2-29.84-10.25-37.3V707.2z M1981.81,1079.59c5.94-7.46,7.29-14.92,7.29-42.73v-206.2c0-29.17-1.35-35.95-7.29-43.41
		V707.2h85.53c32.1,0,56.93,25.78,56.93,122.09c0,56.3-8.64,89.53-26.98,104.46c17.81,12.2,23.47,30.52,23.47,75.29v23.74
		c0,31.21,1.35,41.38,7.02,46.81v80.04h-60.44c-2.43-27.81-3.24-50.88-3.24-85.47v-43.41c0-16.96-0.81-35.27-7.56-43.41
		c-2.43-2.71-4.59-3.39-11.6-3.39v52.91c0,27.81,1.07,34.59,7.01,42.73v80.04h-70.15V1079.59z M1749.48,838.11
		c0-71.9,9.98-139.05,67.18-139.05c57.2,0,67.18,67.16,67.18,139.05v190.6c0,71.89-9.98,139.05-67.18,139.05
		c-57.2,0-67.18-67.15-67.18-139.05V838.11z M1581.09,697.71c24.82,0,44.52,14.24,65.56,48.16v112.6h-52.34v-4.75
		c0-35.95-0.81-58.33-11.61-58.33c-6.75,0-10.79,12.2-10.79,32.56c0,22.38,3.78,30.52,19.43,42.05l15.92,11.53
		c34.54,24.42,45.06,57.66,45.06,139.73c0,100.39-21.58,147.19-67.99,147.19c-27.25,0-44.52-12.2-66.37-47.47V994.12h54.5v12.21
		c0,40.02,0.8,63.76,11.6,63.76c8.1,0,11.33-15.6,11.33-37.98c0-30.52-4.31-40.7-27.25-56.3c-36.7-25.09-52.88-44.09-52.88-138.37
		C1515.25,742.47,1534.67,697.71,1581.09,697.71z M1347.95,1079.59c5.93-7.46,7.29-14.92,7.29-42.73v-206.2
		c0-29.17-1.35-35.95-7.29-43.41V707.2h70.15v80.05c-5.94,7.46-7.01,15.6-7.01,43.41v206.2c0,28.48,1.08,35.27,7.01,42.73v80.04
		h-70.15V1079.59z M1114.81,707.2h69.61v80.05c-3.51,5.43-5.13,12.2-5.13,21.71c0,5.43,0.27,10.17,0.54,16.28l8.1,122.09
		c1.35,21.71,2.15,39.33,3.77,72.57h0.54c1.35-40.7,2.43-63.08,2.97-72.57l7.83-125.49c0.26-5.43,0.54-7.46,0.54-12.21
		c0-10.18-2.43-18.32-6.75-22.38V707.2h61.25v80.05c-4.05,6.1-5.66,16.28-8.36,50.87l-24.01,321.51h-76.36l-25.9-332.37
		c-1.62-21.71-3.24-29.16-8.64-40.02V707.2z M884.91,1079.59c5.93-7.46,7.28-14.92,7.28-42.73v-206.2c0-29.17-1.35-35.95-7.28-43.41
		V707.2h81.21c41.28,0,58.82,35.95,58.82,147.87v162.11c0,103.78-18.08,142.44-58.55,142.44h-81.48V1079.59z M647.44,1079.59
		c4.85-10.17,5.94-18.31,8.1-46.81l24.28-325.58h79.33l25.9,319.48c2.96,35.27,5.13,46.8,9.98,52.91v80.04h-70.42v-80.04
		c4.32-6.78,6.2-14.25,6.2-24.42c0-2.71,0-5.43-0.81-13.57h-26.98c-0.54,6.78-0.81,10.17-0.81,13.57c0,12.21,2.7,20.35,7.28,24.42
		v80.04h-62.06V1079.59z"/>
	<path class="st0" d="M719.22,881.52c-1.08-16.28-2.43-32.56-3.78-62.4h-0.54c-0.54,19.67-1.89,41.38-2.96,62.4l-4.32,80.04h17.27
		L719.22,881.52z"/>
	<path class="st0" d="M969.63,841.51c0-27.13-4.05-36.63-15.38-36.63h-6.2v255.72h4.59c14.3,0,16.99-7.46,16.99-49.52V841.51z"/>
	<path class="st0" d="M2066.53,846.93c0-35.95-3.51-44.77-18.62-44.77h-2.96v91.57h7.01
		C2063.02,893.06,2066.53,881.52,2066.53,846.93z"/>
	<path class="st0" d="M1816.66,1070.77c9.98,0,10.8-25.09,10.8-49.51V845.57c0-24.42-0.81-49.51-10.8-49.51
		c-9.98,0-10.79,25.09-10.79,49.51v175.68C1805.87,1045.67,1806.67,1070.77,1816.66,1070.77z"/>
	<path d="M583.18,1586.31h1833.65v-365.39H583.18V1586.31z M2285.56,1345.57c1.07-4.17,2.31-7.98,3.73-11.43
		c1.41-3.45,3.04-6.49,4.88-9.15c5.05-7.58,11.14-11.37,18.3-11.37c6.38,0,12.8,2.99,19.26,8.98v53.65
		c-2.18-5.99-4.67-10.7-7.45-14.15c-2.78-3.45-5.52-5.17-8.22-5.17c-2.05,0-3.75,1.06-5.07,3.18c-1.37,2.05-2.05,4.51-2.05,7.38
		c0,4.7,1.82,9.36,5.46,13.99l4.24,5.57c5.65,7.2,9.69,14.59,12.14,22.17c2.49,7.58,3.73,16.45,3.73,26.61
		c0,17.28-2.98,31.53-8.93,42.74c-5.95,11.22-13.48,16.83-22.6,16.83c-6.29,0-13.04-2.46-20.23-7.39v-55.13
		c5.27,12.73,10.96,19.1,17.08,19.1c2.31,0,4.2-1.08,5.65-3.24c1.45-2.16,2.19-4.87,2.19-8.13c0-4.7-1.58-9.28-4.75-13.75
		l-4.37-6.02c-2.92-3.87-5.4-7.71-7.45-11.54c-2.05-3.82-3.72-7.76-5.01-11.82s-2.23-8.24-2.83-12.56c-0.6-4.32-0.9-8.87-0.9-13.64
		C2282.35,1363.07,2283.42,1354.51,2285.56,1345.57z M2171.02,1338.64c7.96-16.67,18.6-25.01,31.91-25.01
		c4.33,0,8.73,1.44,13.23,4.32v50.13c-3.98-7.04-8.07-10.57-12.27-10.57c-5.48,0-9.76,4.13-12.84,12.39
		c-3.09,8.34-4.63,19.86-4.63,34.56c0,7.12,0.38,13.49,1.15,19.1c0.77,5.61,1.87,10.35,3.31,14.21c1.43,3.87,3.2,6.82,5.3,8.87
		c2.09,2.05,4.49,3.07,7.19,3.07c4.62,0,9.26-3.79,13.93-11.37l-1.54,50.7c-5.95,4.24-11.28,6.37-15.99,6.37
		c-11.09,0-20.42-7.2-28-21.6c-8.47-16.14-12.71-38.99-12.71-68.55C2159.08,1377.59,2163.06,1355.39,2171.02,1338.64z
		 M2063.88,1316.81h26.77v175.52h-26.77V1316.81z M1927.44,1316.81h27.42c12.07,0,21.1,4.21,27.1,12.61
		c7.62,10.76,11.43,26.08,11.43,45.93c0,21.22-5.12,35.88-15.35,44l19.9,72.98h-28.96l-13.22-62.52c-0.13-1.06-0.36-2.46-0.67-4.2
		c-0.32-1.74-0.72-3.83-1.19-6.25l0.19,11.6v61.39h-26.65V1316.81z M1816.95,1316.81l4.81,26.03c0.94,5.08,1.79,9.97,2.54,14.67
		c0.75,4.7,1.42,9.2,2.02,13.52c0.99-6.44,1.84-11.99,2.57-16.65c0.73-4.66,1.37-8.43,1.92-11.31l4.88-26.26h27.74l-23.05,101.17
		v74.35h-26.78v-74.35l-24.59-101.17H1816.95z M1690.08,1316.81h26.77v133.34h20.1v42.18h-46.87V1316.81z M1472.56,1316.81h56.89
		v42.06h-15.35v133.46h-26.78v-133.46h-14.77V1316.81z M1381.78,1316.81h26.77v175.52h-26.77V1316.81z M1267.95,1338.64
		c7.96-16.67,18.6-25.01,31.91-25.01c4.33,0,8.73,1.44,13.23,4.32v50.13c-3.98-7.04-8.07-10.57-12.27-10.57
		c-5.48,0-9.76,4.13-12.84,12.39c-3.09,8.34-4.63,19.86-4.63,34.56c0,7.12,0.39,13.49,1.16,19.1c0.77,5.61,1.88,10.35,3.31,14.21
		c1.43,3.87,3.2,6.82,5.3,8.87c2.1,2.05,4.49,3.07,7.19,3.07c4.62,0,9.27-3.79,13.93-11.37l-1.54,50.7
		c-5.95,4.24-11.28,6.37-15.99,6.37c-11.09,0-20.42-7.2-28-21.6c-8.47-16.14-12.71-38.99-12.71-68.55
		C1256,1377.59,1259.98,1355.39,1267.95,1338.64z M1160.8,1316.81h26.77v175.52h-26.77V1316.81z M1048.89,1316.81h26.77v133.34h20.1
		v42.18h-46.87V1316.81z M916.7,1316.81h25.94c12.93,0,22.52,4.66,28.77,13.98c7.36,10.99,11.04,26.26,11.04,45.82
		c0,21.3-3.92,37.17-11.75,47.64c-5.35,7.05-13.04,10.57-23.06,10.57h-4.17v57.52H916.7V1316.81z M777.18,1316.81h29.79l4.43,23.76
		c0.47,2.2,0.93,4.78,1.38,7.73c0.45,2.96,0.91,6.29,1.38,10.01c1.07-7.58,1.96-13.42,2.7-17.51l4.11-23.98h29.99l-22.6,84.46
		l24.33,91.06h-29.73l-4.94-25.01c-1.58-7.66-2.87-15.01-3.85-22.06c-0.95,6.97-2.36,14.97-4.24,23.99l-4.95,23.07h-29.15
		l24.08-91.06L777.18,1316.81z M664.51,1316.81h49.76v41.27h-22.99v25.58h20.61v39.67h-20.61v26.83h22.99v42.18h-49.76V1316.81z"/>
	<path d="M1963.72,1391.84c2.05-4.17,3.08-9.48,3.08-15.92c0-13.11-3.88-19.66-11.62-19.66h-0.97v41.83h1.8
		C1959.09,1398.09,1961.66,1396.01,1963.72,1391.84z"/>
	<path d="M952.46,1390.19c1.92-3.53,2.89-8.36,2.89-14.5c0-6.06-0.94-10.98-2.83-14.77c-1.89-3.87-4.28-5.8-7.19-5.8h-1.86v40.24
		l1.23,0.11C947.94,1395.48,950.54,1393.72,952.46,1390.19z"/>
	<path d="M709.5,1079.59c-4.59-4.07-7.28-12.21-7.28-24.42c0-3.39,0.27-6.78,0.81-13.57H730c0.81,8.14,0.81,10.85,0.81,13.57
		c0,10.17-1.89,17.64-6.2,24.42v80.04h70.42v-80.04c-4.86-6.11-7.02-17.64-9.98-52.91l-25.9-319.48h-79.33l-24.28,325.58
		c-2.16,28.5-3.24,36.63-8.1,46.81v80.04h62.06V1079.59z M711.93,881.52c1.08-21.02,2.42-42.73,2.96-62.4h0.54
		c1.35,29.85,2.7,46.12,3.78,62.4l5.66,80.04h-17.27L711.93,881.52z"/>
	<path d="M1024.94,1017.18V855.07c0-111.92-17.54-147.87-58.82-147.87h-81.21v80.05c5.93,7.46,7.28,14.24,7.28,43.41v206.2
		c0,27.81-1.35,35.27-7.28,42.73v80.04h81.48C1006.86,1159.63,1024.94,1120.97,1024.94,1017.18z M952.63,1060.59h-4.59V804.87h6.2
		c11.33,0,15.38,9.5,15.38,36.63v169.57C969.63,1053.14,966.93,1060.59,952.63,1060.59z"/>
	<path d="M1149.35,1159.63h76.36l24.01-321.51c2.7-34.59,4.32-44.77,8.36-50.87V707.2h-61.25v80.05c4.32,4.06,6.75,12.2,6.75,22.38
		c0,4.75-0.27,6.78-0.54,12.21l-7.83,125.49c-0.54,9.49-1.62,31.88-2.97,72.57h-0.54c-1.62-33.24-2.42-50.87-3.77-72.57l-8.1-122.09
		c-0.27-6.11-0.54-10.85-0.54-16.28c0-9.5,1.62-16.28,5.13-21.71V707.2h-69.61v80.05c5.4,10.85,7.01,18.31,8.64,40.02
		L1149.35,1159.63z"/>
	<path d="M1418.1,1079.59c-5.94-7.46-7.01-14.25-7.01-42.73v-206.2c0-27.81,1.08-35.95,7.01-43.41V707.2h-70.15v80.05
		c5.93,7.46,7.29,14.24,7.29,43.41v206.2c0,27.81-1.35,35.27-7.29,42.73v80.04h70.15V1079.59z"/>
	<path d="M1568.13,975.8c22.94,15.6,27.25,25.78,27.25,56.3c0,22.38-3.24,37.98-11.33,37.98c-10.8,0-11.6-23.74-11.6-63.76v-12.21
		h-54.5v126.84c21.85,35.27,39.12,47.47,66.37,47.47c46.41,0,67.99-46.8,67.99-147.19c0-82.07-10.52-115.31-45.06-139.73
		l-15.92-11.53c-15.65-11.53-19.43-19.67-19.43-42.05c0-20.36,4.05-32.56,10.79-32.56c10.8,0,11.61,22.38,11.61,58.33v4.75h52.34
		v-112.6c-21.04-33.91-40.74-48.16-65.56-48.16c-46.42,0-65.84,44.76-65.84,139.72C1515.25,931.72,1531.43,950.71,1568.13,975.8z"/>
	<path d="M1816.66,1167.77c57.2,0,67.18-67.15,67.18-139.05v-190.6c0-71.9-9.98-139.05-67.18-139.05
		c-57.2,0-67.18,67.16-67.18,139.05v190.6C1749.48,1100.61,1759.46,1167.77,1816.66,1167.77z M1805.87,845.57
		c0-24.42,0.8-49.51,10.79-49.51c9.98,0,10.8,25.09,10.8,49.51v175.68c0,24.42-0.81,49.51-10.8,49.51
		c-9.98,0-10.79-25.09-10.79-49.51V845.57z"/>
	<path d="M2051.96,1079.59c-5.94-8.14-7.01-14.92-7.01-42.73v-52.91c7.01,0,9.17,0.68,11.6,3.39c6.75,8.14,7.56,26.45,7.56,43.41
		v43.41c0,34.59,0.8,57.66,3.24,85.47h60.44v-80.04c-5.67-5.43-7.02-15.6-7.02-46.81v-23.74c0-44.77-5.66-63.08-23.47-75.29
		c18.35-14.93,26.98-48.16,26.98-104.46c0-96.31-24.83-122.09-56.93-122.09h-85.53v80.05c5.94,7.46,7.29,14.24,7.29,43.41v206.2
		c0,27.81-1.35,35.27-7.29,42.73v80.04h70.15V1079.59z M2044.95,802.16h2.96c15.11,0,18.62,8.82,18.62,44.77
		c0,34.59-3.51,46.12-14.57,46.8h-7.01V802.16z"/>
	<path d="M2253.81,990.73v37.3c0,32.56-2.16,44.09-8.1,51.55v80.04h72.04v-80.04c-6.48-7.46-8.1-17.64-8.1-51.55v-42.73l34-167.54
		c2.7-13.57,4.85-21.7,8.9-30.52V707.2h-56.12v64.44c0,19.67-1.08,29.84-5.4,52.91l-5.12,27.81l-4.86-27.81
		c-4.32-24.42-5.4-33.92-5.4-52.23V707.2h-64.21v80.05c4.05,7.46,5.93,14.24,10.25,37.3L2253.81,990.73z"/>
	<path class="st0" d="M900.9,483.57l-65.05,92.17h72.09l5.07-11.47h51.81l6.19,11.47h72.37l-67.02-92.17H900.9z M925.68,542.44
		l9.29-17.69c0,0,0,0,0,0l4.79-9.12l4.5,9.12c0,0,0,0,0,0l8.73,17.69H925.68z"/>
	<path class="st0" d="M785.77,493.24c-7.88-3.73-25.06-9.67-54.91-9.67h-90.1v92.17h66.46v-27.77h32.94
		c14.36,0,31.25-0.83,46.18-7.46c15.21-6.77,18.59-15.48,18.59-23.08C804.92,510.1,801.26,500.7,785.77,493.24z M733.96,522.26
		c-4.79,2.35-11.83,2.49-15.21,2.49h-11.54v-15.89h12.39c5.07,0,10.7,0.83,13.8,2.07c2.53,0.97,5.07,2.77,5.07,5.67
		C738.47,519.36,736.49,521.16,733.96,522.26z"/>
	<polygon class="st0" points="1411.04,541.6 1464.26,541.6 1464.26,517.42 1411.04,517.42 1411.04,508.85 1469.61,508.85 
		1469.61,483.57 1342.9,483.57 1342.9,575.74 1471.3,575.74 1471.3,550.45 1411.04,550.45 	"/>
	<polygon class="st0" points="2301.8,483.57 2233.66,483.57 2233.66,575.74 2359.24,575.74 2359.24,546.03 2301.8,546.03 	"/>
	<path class="st0" d="M2032.09,483.57l-65.05,92.17h72.08l5.07-11.47h51.82l6.19,11.47h72.37l-67.02-92.17H2032.09z M2056.87,542.44
		l9.29-17.69c0,0,0,0,0,0l4.79-9.12l4.5,9.12c0,0,0,0,0,0l8.73,17.69H2056.87z"/>
	<path class="st0" d="M1226.08,540.36v-0.83c10.98-1.1,20.28-3.87,25.91-7.32c5.35-3.18,10.42-8.29,10.42-16.45
		c0-10.92-8.17-17.97-17.74-22.67c-17.18-8.43-37.73-9.53-57.45-9.53h-84.75v92.17h66.45v-11.27v-18.3v-1.02l0.82,0.82
		c0,0,1.1,1.1,1.5,1.5l14.1,14.05v0l14.27,14.23h78.56l-42.24-31.09C1233.4,542.71,1229.75,541.33,1226.08,540.36z M1191.17,522.54
		c-4.22,1.8-10.42,2.07-14.36,2.07h-7.88v-15.75h11.82c5.64,0,9.29,1.25,11.55,2.49c2.53,1.39,3.66,3.46,3.66,5.53
		C1195.96,519.77,1193.42,521.57,1191.17,522.54z"/>
	<polygon class="st0" points="1789.68,513.55 1827.98,513.55 1827.98,575.74 1894.99,575.74 1894.99,513.55 1933.29,513.55 
		1933.29,483.57 1789.68,483.57 	"/>
	<polygon class="st0" points="1663.3,530.39 1605.86,483.57 1540.81,483.57 1540.81,575.74 1605.86,575.74 1605.86,529.68 
		1663.3,575.74 1728.63,575.74 1728.63,483.57 1663.3,483.57 	"/>
	<polygon class="st0" points="714.27,1450.16 691.28,1450.16 691.28,1423.33 711.89,1423.33 711.89,1383.65 691.28,1383.65 
		691.28,1358.08 714.27,1358.08 714.27,1316.81 664.51,1316.81 664.51,1492.33 714.27,1492.33 	"/>
	<path class="st0" d="M804.98,1492.33l4.95-23.07c1.88-9.02,3.29-17.02,4.24-23.99c0.98,7.05,2.26,14.4,3.85,22.06l4.94,25.01h29.73
		l-24.33-91.06l22.6-84.46h-29.99l-4.11,23.98c-0.73,4.09-1.62,9.93-2.7,17.51c-0.47-3.71-0.93-7.05-1.38-10.01
		c-0.45-2.96-0.91-5.53-1.38-7.73l-4.43-23.76h-29.79l22.73,84.46l-24.08,91.06H804.98z"/>
	<path class="st0" d="M943.47,1434.81h4.17c10.02,0,17.7-3.53,23.06-10.57c7.83-10.46,11.75-26.34,11.75-47.64
		c0-19.55-3.68-34.82-11.04-45.82c-6.25-9.32-15.84-13.98-28.77-13.98H916.7v175.52h26.77V1434.81z M943.47,1355.12h1.86
		c2.91,0,5.31,1.93,7.19,5.8c1.89,3.79,2.83,8.71,2.83,14.77c0,6.14-0.96,10.97-2.89,14.5c-1.93,3.52-4.52,5.29-7.77,5.29
		l-1.23-0.11V1355.12z"/>
	<polygon class="st0" points="1095.76,1450.16 1075.66,1450.16 1075.66,1316.81 1048.89,1316.81 1048.89,1492.33 1095.76,1492.33 	
		"/>
	<rect x="1160.8" y="1316.81" class="st0" width="26.77" height="175.52"/>
	<path class="st0" d="M1296.72,1495.4c4.7,0,10.04-2.12,15.99-6.37l1.54-50.7c-4.67,7.58-9.31,11.37-13.93,11.37
		c-2.7,0-5.1-1.02-7.19-3.07c-2.1-2.05-3.87-5-5.3-8.87c-1.43-3.86-2.54-8.6-3.31-14.21c-0.77-5.61-1.16-11.98-1.16-19.1
		c0-14.7,1.54-26.22,4.63-34.56c3.08-8.26,7.36-12.39,12.84-12.39c4.2,0,8.29,3.52,12.27,10.57v-50.13
		c-4.5-2.88-8.9-4.32-13.23-4.32c-13.31,0-23.95,8.34-31.91,25.01c-7.96,16.75-11.94,38.95-11.94,66.61
		c0,29.56,4.24,52.41,12.71,68.55C1276.29,1488.2,1285.63,1495.4,1296.72,1495.4z"/>
	<rect x="1381.78" y="1316.81" class="st0" width="26.77" height="175.52"/>
	<polygon class="st0" points="1487.33,1492.33 1514.1,1492.33 1514.1,1358.87 1529.45,1358.87 1529.45,1316.81 1472.56,1316.81 
		1472.56,1358.87 1487.33,1358.87 	"/>
	<polygon class="st0" points="1736.95,1450.16 1716.85,1450.16 1716.85,1316.81 1690.08,1316.81 1690.08,1492.33 1736.95,1492.33 	
		"/>
	<path class="st0" d="M1813.61,1492.33h26.78v-74.35l23.05-101.17h-27.74l-4.88,26.26c-0.55,2.88-1.2,6.65-1.92,11.31
		c-0.73,4.66-1.58,10.21-2.57,16.65c-0.6-4.32-1.27-8.82-2.02-13.52c-0.75-4.7-1.59-9.59-2.54-14.67l-4.81-26.03h-27.93
		l24.59,101.17V1492.33z"/>
	<path class="st0" d="M1954.09,1430.95l-0.19-11.6c0.47,2.42,0.87,4.51,1.19,6.25c0.32,1.74,0.54,3.15,0.67,4.2l13.22,62.52h28.96
		l-19.9-72.98c10.23-8.11,15.35-22.77,15.35-44c0-19.85-3.81-35.17-11.43-45.93c-6-8.41-15.03-12.61-27.1-12.61h-27.42v175.52h26.65
		V1430.95z M1954.21,1356.26h0.97c7.75,0,11.62,6.56,11.62,19.66c0,6.44-1.03,11.75-3.08,15.92c-2.06,4.17-4.63,6.25-7.71,6.25h-1.8
		V1356.26z"/>
	<rect x="2063.88" y="1316.81" class="st0" width="26.77" height="175.52"/>
	<path class="st0" d="M2199.79,1495.4c4.71,0,10.03-2.12,15.99-6.37l1.54-50.7c-4.67,7.58-9.31,11.37-13.93,11.37
		c-2.7,0-5.1-1.02-7.19-3.07c-2.1-2.05-3.87-5-5.3-8.87c-1.43-3.86-2.54-8.6-3.31-14.21c-0.77-5.61-1.15-11.98-1.15-19.1
		c0-14.7,1.54-26.22,4.63-34.56c3.08-8.26,7.36-12.39,12.84-12.39c4.2,0,8.28,3.52,12.27,10.57v-50.13
		c-4.5-2.88-8.9-4.32-13.23-4.32c-13.31,0-23.95,8.34-31.91,25.01c-7.96,16.75-11.94,38.95-11.94,66.61
		c0,29.56,4.24,52.41,12.71,68.55C2179.37,1488.2,2188.7,1495.4,2199.79,1495.4z"/>
	<path class="st0" d="M2286.07,1397.47c1.29,4.05,2.95,8,5.01,11.82c2.06,3.83,4.54,7.67,7.45,11.54l4.37,6.02
		c3.17,4.47,4.75,9.06,4.75,13.75c0,3.26-0.73,5.97-2.19,8.13c-1.45,2.16-3.34,3.24-5.65,3.24c-6.12,0-11.81-6.37-17.08-19.1v55.13
		c7.19,4.93,13.94,7.39,20.23,7.39c9.12,0,16.65-5.61,22.6-16.83c5.95-11.21,8.93-25.46,8.93-42.74c0-10.16-1.24-19.03-3.73-26.61
		c-2.44-7.57-6.49-14.96-12.14-22.17l-4.24-5.57c-3.64-4.62-5.46-9.29-5.46-13.99c0-2.87,0.68-5.34,2.05-7.38
		c1.33-2.12,3.02-3.18,5.07-3.18c2.7,0,5.44,1.73,8.22,5.17c2.78,3.45,5.27,8.16,7.45,14.15v-53.65
		c-6.46-5.99-12.88-8.98-19.26-8.98c-7.15,0-13.25,3.79-18.3,11.37c-1.85,2.65-3.47,5.7-4.88,9.15c-1.41,3.45-2.66,7.26-3.73,11.43
		c-2.14,8.94-3.21,17.5-3.21,25.69c0,4.78,0.3,9.32,0.9,13.64C2283.85,1389.22,2284.79,1393.41,2286.07,1397.47z"/>
</g>
</svg>
